<svg id="visual" viewBox="0 0 900 600" width="900" height="600" xmlns="http://www.w3.org/2000/svg" xmlns:xlink="http://www.w3.org/1999/xlink" version="1.1"><rect x="0" y="0" width="900" height="600" fill="#001220"></rect><defs><linearGradient id="grad1_0" x1="33.3%" y1="0%" x2="100%" y2="100%"><stop offset="20%" stop-color="#001220" stop-opacity="1"></stop><stop offset="80%" stop-color="#001220" stop-opacity="1"></stop></linearGradient></defs><defs><linearGradient id="grad2_0" x1="0%" y1="0%" x2="66.7%" y2="100%"><stop offset="20%" stop-color="#001220" stop-opacity="1"></stop><stop offset="80%" stop-color="#001220" stop-opacity="1"></stop></linearGradient></defs><g transform="translate(900, 0)"><path d="M0 324.5C-43.1 321 -86.2 317.5 -124.2 299.8C-162.1 282 -194.9 250 -215.7 215.7C-236.5 181.3 -245.3 144.6 -261.5 108.3C-277.6 72 -301.1 36 -324.5 0L0 0Z" fill="#ae0049"></path></g><g transform="translate(0, 600)"><path d="M0 -324.5C32.4 -287.4 64.9 -250.2 94.9 -229.1C124.9 -208 152.5 -202.9 190.2 -190.2C227.9 -177.5 275.7 -157.2 299.8 -124.2C323.9 -91.2 324.2 -45.6 324.5 0L0 0Z" fill="#ae0049"></path></g></svg>