<svg id="visual" viewBox="0 0 900 600" width="900" height="600" xmlns="http://www.w3.org/2000/svg" xmlns:xlink="http://www.w3.org/1999/xlink" version="1.1"><rect x="0" y="0" width="900" height="600" fill="#002233"></rect><path d="M0 393L21.5 407.7C43 422.3 86 451.7 128.8 465.2C171.7 478.7 214.3 476.3 257.2 473.7C300 471 343 468 385.8 460.5C428.7 453 471.3 441 514.2 428.8C557 416.7 600 404.3 642.8 404.7C685.7 405 728.3 418 771.2 423.7C814 429.3 857 427.7 878.5 426.8L900 426L900 601L878.5 601C857 601 814 601 771.2 601C728.3 601 685.7 601 642.8 601C600 601 557 601 514.2 601C471.3 601 428.7 601 385.8 601C343 601 300 601 257.2 601C214.3 601 171.7 601 128.8 601C86 601 43 601 21.5 601L0 601Z" fill="#FFFFFF" stroke-linecap="round" stroke-linejoin="miter"></path></svg>